<svg xmlns="http://www.w3.org/2000/svg" xmlns:xlink="http://www.w3.org/1999/xlink" id="terminal" baseProfile="full" viewBox="0 0 703 251" width="703" version="1.1">
    <defs>
        <termtosvg:template_settings xmlns:termtosvg="https://github.com/nbedos/termtosvg">
            <termtosvg:screen_geometry columns="82" rows="10"/>
            <termtosvg:animation type="css"/>
        </termtosvg:template_settings>
        <style type="text/css" id="generated-style"><![CDATA[#screen {
                font-family: 'DejaVu Sans Mono', monospace;
                font-style: normal;
                font-size: 14px;
            }

        text {
            dominant-baseline: text-before-edge;
            white-space: pre;
        }
    
            :root {
                --animation-duration: 20609ms;
            }

            @keyframes roll {
                0.000%{transform:translateY(0px)}
0.243%{transform:translateY(-204px)}
0.252%{transform:translateY(-408px)}
8.123%{transform:translateY(-612px)}
9.195%{transform:translateY(-816px)}
11.092%{transform:translateY(-1020px)}
11.679%{transform:translateY(-1224px)}
12.621%{transform:translateY(-1428px)}
14.765%{transform:translateY(-1632px)}
18.827%{transform:translateY(-1836px)}
23.228%{transform:translateY(-2040px)}
23.252%{transform:translateY(-2244px)}
23.271%{transform:translateY(-2448px)}
23.315%{transform:translateY(-2652px)}
23.422%{transform:translateY(-2856px)}
23.451%{transform:translateY(-3060px)}
23.485%{transform:translateY(-3264px)}
23.563%{transform:translateY(-3468px)}
23.630%{transform:translateY(-3672px)}
82.401%{transform:translateY(-3876px)}
82.474%{transform:translateY(-4080px)}
82.532%{transform:translateY(-4284px)}
82.595%{transform:translateY(-4488px)}
82.663%{transform:translateY(-4692px)}
82.721%{transform:translateY(-4896px)}
82.794%{transform:translateY(-5100px)}
82.823%{transform:translateY(-5304px)}
82.842%{transform:translateY(-5508px)}
83.124%{transform:translateY(-5712px)}
83.138%{transform:translateY(-5916px)}
88.743%{transform:translateY(-6120px)}
91.159%{transform:translateY(-6324px)}
92.018%{transform:translateY(-6528px)}
93.095%{transform:translateY(-6732px)}
95.123%{transform:translateY(-6936px)}
95.148%{transform:translateY(-7140px)}
100.000%{transform:translateY(-7140px)}
            }

            #screen_view {
                animation-duration: 20609ms;
                animation-iteration-count:infinite;
                animation-name:roll;
                animation-timing-function: steps(1,end);
                animation-fill-mode: forwards;
            }
        ]]></style>
        <style type="text/css" id="user-style">
            /* gjm8 color theme (source: https://terminal.sexy/) */
            .foreground {fill: #f8f8f2}
            .background {fill: #272822}
            .color0 {fill: #272822}
            .color1 {fill: #f92672}
            .color2 {fill: #a6e22e}
            .color3 {fill: #f4bf75}
            .color4 {fill: #66d9ef}
            .color5 {fill: #ae81ff}
            .color6 {fill: #a1efe4}
            .color7 {fill: #f8f8f2}
            .color8 {fill: #75715e}
            .color9 {fill: #fd971f}
            .color10 {fill: #383830}
            .color11 {fill: #49483e}
            .color12 {fill: #a59f85}
            .color13 {fill: #f5f4f1}
            .color14 {fill: #cc6633}
            .color15 {fill: #f9f8f5}
        </style>
    </defs>
    <rect id="terminalui" class="background" width="100%" height="100%" ry="4.5826941"/>
    <circle cx="24" cy="23" r="7" class="color1"/>
    <circle cx="44" cy="23" r="7" class="color3"/>
    <circle cx="64" cy="23" r="7" class="color2"/>
    <svg id="screen" width="656" height="170" x="23" y="50" viewBox="0 0 656 170" preserveAspectRatio="xMidYMin slice">
        <rect class="background" height="100%" width="100%" x="0" y="0"/><defs><g id="g1"><text x="0" textLength="8" class="background"> </text><text x="8" textLength="648" class="foreground">                                                                                 </text></g><g id="g2"><text x="0" textLength="200" class="foreground"> nasm@nasm-Inspiron-7537 </text><text x="200" textLength="168" class="color0">&#57520; ~/Inception2/build </text><text x="368" textLength="8" class="color4">&#57520;</text><text x="376" textLength="128" class="color0"> &#57504; mine/2.0.x &#9679; </text><text x="504" textLength="8" class="color3">&#57520;</text><text x="512" textLength="8" class="foreground"> </text><text x="520" textLength="8" class="background"> </text><text x="528" textLength="128" class="foreground">                </text></g><g id="g3"><text x="0" textLength="200" class="foreground"> nasm@nasm-Inspiron-7537 </text><text x="200" textLength="168" class="color0">&#57520; ~/Inception2/build </text><text x="368" textLength="8" class="color4">&#57520;</text><text x="376" textLength="128" class="color0"> &#57504; mine/2.0.x &#9679; </text><text x="504" textLength="8" class="color3">&#57520;</text><text x="512" textLength="16" class="foreground"> .</text><text x="528" textLength="8" class="background"> </text><text x="536" textLength="120" class="foreground">               </text></g><g id="g4"><text x="0" textLength="200" class="foreground"> nasm@nasm-Inspiron-7537 </text><text x="200" textLength="168" class="color0">&#57520; ~/Inception2/build </text><text x="368" textLength="8" class="color4">&#57520;</text><text x="376" textLength="128" class="color0"> &#57504; mine/2.0.x &#9679; </text><text x="504" textLength="8" class="color3">&#57520;</text><text x="512" textLength="24" class="foreground"> ./</text><text x="536" textLength="8" class="background"> </text><text x="544" textLength="112" class="foreground">              </text></g><g id="g5"><text x="0" textLength="200" class="foreground"> nasm@nasm-Inspiron-7537 </text><text x="200" textLength="168" class="color0">&#57520; ~/Inception2/build </text><text x="368" textLength="8" class="color4">&#57520;</text><text x="376" textLength="128" class="color0"> &#57504; mine/2.0.x &#9679; </text><text x="504" textLength="8" class="color3">&#57520;</text><text x="512" textLength="32" class="foreground"> ./b</text><text x="544" textLength="8" class="background"> </text><text x="552" textLength="104" class="foreground">             </text></g><g id="g6"><text x="0" textLength="200" class="foreground"> nasm@nasm-Inspiron-7537 </text><text x="200" textLength="168" class="color0">&#57520; ~/Inception2/build </text><text x="368" textLength="8" class="color4">&#57520;</text><text x="376" textLength="128" class="color0"> &#57504; mine/2.0.x &#9679; </text><text x="504" textLength="8" class="color3">&#57520;</text><text x="512" textLength="40" class="foreground"> ./bi</text><text x="552" textLength="8" class="background"> </text><text x="560" textLength="96" class="foreground">            </text></g><g id="g7"><text x="0" textLength="200" class="foreground"> nasm@nasm-Inspiron-7537 </text><text x="200" textLength="168" class="color0">&#57520; ~/Inception2/build </text><text x="368" textLength="8" class="color4">&#57520;</text><text x="376" textLength="128" class="color0"> &#57504; mine/2.0.x &#9679; </text><text x="504" textLength="8" class="color3">&#57520;</text><text x="512" textLength="48" class="foreground"> ./bin</text><text x="560" textLength="8" class="background"> </text><text x="568" textLength="88" class="foreground">           </text></g><g id="g8"><text x="0" textLength="200" class="foreground"> nasm@nasm-Inspiron-7537 </text><text x="200" textLength="168" class="color0">&#57520; ~/Inception2/build </text><text x="368" textLength="8" class="color4">&#57520;</text><text x="376" textLength="128" class="color0"> &#57504; mine/2.0.x &#9679; </text><text x="504" textLength="8" class="color3">&#57520;</text><text x="512" textLength="56" class="foreground"> ./bin/</text><text x="568" textLength="8" class="background"> </text><text x="576" textLength="80" class="foreground">          </text></g><g id="g9"><text x="0" textLength="200" class="foreground"> nasm@nasm-Inspiron-7537 </text><text x="200" textLength="168" class="color0">&#57520; ~/Inception2/build </text><text x="368" textLength="8" class="color4">&#57520;</text><text x="376" textLength="128" class="color0"> &#57504; mine/2.0.x &#9679; </text><text x="504" textLength="8" class="color3">&#57520;</text><text x="512" textLength="144" class="foreground"> ./bin/inception -</text></g><g id="g10"><text x="0" textLength="656" class="foreground">-allocate-determ --allocate-determ-start-address 0x30000000 --allocate-determ-size</text></g><g id="g11"><text x="0" textLength="656" class="foreground"> 10000 --elf ./test/TEST_CASE-llvm-3.6.elf --bitcode ./test/TEST_CASE-llvm-3.6.bc </text></g><g id="g12"><text x="0" textLength="336" class="foreground">--mem_conf_file ./conf.json --has_debugger</text><text x="336" textLength="8" class="background"> </text><text x="344" textLength="312" class="foreground">                                       </text></g><g id="g13"><text x="0" textLength="656" class="foreground">--mem_conf_file ./conf.json --has_debugger                                        </text></g><g id="g14"><text x="0" textLength="528" class="foreground">KLEE: output directory is "/home/nasm/Inception2/build/klee-out-3"</text></g><g id="g15"><text x="0" textLength="8" class="background"> </text></g><g id="g16"><text x="0" textLength="240" class="foreground">KLEE: Using STP solver backend</text></g><g id="g17"><text x="0" textLength="496" class="foreground">KLEE: Deterministic memory allocation starting from 0x30000000</text></g><g id="g18"><text x="0" textLength="344" class="foreground">KLEE: driver successfully claimed interface</text></g><g id="g19"><text x="0" textLength="240" class="foreground">KLEE: inception module enabled</text></g><g id="g20"><text x="0" textLength="608" class="foreground">KLEE: mapping function UsageFault_Handler to device address 0000000010000486</text></g><g id="g21"><text x="0" textLength="592" class="foreground">KLEE: mapping function DebugMon_Handler to device address 000000001000048a</text></g><g id="g22"><text x="0" textLength="576" class="foreground">KLEE: mapping function PendSV_Handler to device address 000000001000048c</text></g><g id="g23"><text x="0" textLength="584" class="foreground">KLEE: mapping function SysTick_Handler to device address 000000001000048e</text></g><g id="g24"><text x="0" textLength="552" class="foreground">KLEE: mapping function NMI_Handler to device address 000000001000047e</text></g><g id="g25"><text x="0" textLength="568" class="foreground">KLEE: mapping function Reset_Handler to device address 0000000010000478</text></g><g id="g26"><text x="0" textLength="552" class="foreground">KLEE: mapping function SVC_Handler to device address 0000000010000488</text></g><g id="g27"><text x="0" textLength="472" class="foreground">KLEE: mapping object reg to device address 0000000020000000</text></g><g id="g28"><text x="0" textLength="656" class="foreground">KLEE: adding custom object at 20000000 with size 00000004 with name reg - conf [Re</text></g><g id="g29"><text x="0" textLength="168" class="foreground">adOnly;Symbolic;Rando</text><text x="168" textLength="8" class="background"> </text></g><g id="g30"><text x="0" textLength="368" class="foreground">KLEE: object .str1 to address 000000003000003c</text></g><g id="g31"><text x="0" textLength="368" class="foreground">KLEE: object .str2 to address 0000000030000068</text></g><g id="g32"><text x="0" textLength="368" class="foreground">KLEE: object .str3 to address 000000003000008c</text></g><g id="g33"><text x="0" textLength="368" class="foreground">KLEE: object .str4 to address 00000000300000a6</text></g><g id="g34"><text x="0" textLength="368" class="foreground">KLEE: object .str5 to address 00000000300000ca</text></g><g id="g35"><text x="0" textLength="368" class="foreground">KLEE: object .str6 to address 00000000300000e2</text></g><g id="g36"><text x="0" textLength="368" class="foreground">KLEE: object .str7 to address 0000000030000111</text></g><g id="g37"><text x="0" textLength="496" class="foreground">KLEE: mapping object .stack to device address 000000002000000c</text></g><g id="g38"><text x="0" textLength="656" class="foreground">KLEE: adding custom object at 2000000c with size 00002008 with name .stack - conf </text></g><g id="g39"><text x="0" textLength="56" class="foreground">[ReadOn</text><text x="56" textLength="8" class="background"> </text></g><g id="g40"><text x="0" textLength="344" class="foreground">KLEE: object ZF to address 00000000300001bc</text></g><g id="g41"><text x="0" textLength="344" class="foreground">KLEE: object CF to address 00000000300001d0</text></g><g id="g42"><text x="0" textLength="344" class="foreground">KLEE: object VF to address 00000000300001e4</text></g><g id="g43"><text x="0" textLength="344" class="foreground">KLEE: object QF to address 00000000300001f8</text></g><g id="g44"><text x="0" textLength="344" class="foreground">KLEE: object PC to address 000000003000020c</text></g><g id="g45"><text x="0" textLength="344" class="foreground">KLEE: object LR to address 0000000030000220</text></g><g id="g46"><text x="0" textLength="352" class="foreground">KLEE: object R12 to address 0000000030000234</text></g><g id="g47"><text x="0" textLength="344" class="foreground">KLEE: object R3 to address 0000000030000248</text></g><g id="g48"><text x="0" textLength="344" class="foreground">KLEE: object R2 to address 000000003000025c</text></g><g id="g49"><text x="0" textLength="48" class="foreground">KLEE: </text><text x="48" textLength="8" class="background"> </text></g><g id="g50"><text x="0" textLength="344" class="foreground">KLEE: object R1 to address 0000000030000270</text></g><g id="g51"><text x="0" textLength="616" class="foreground">KLEE: object inception_icp_error_message_filename to address 000000003000027e</text></g><g id="g52"><text x="0" textLength="608" class="foreground">KLEE: object inception_icp_error_message_message to address 00000000300002a0</text></g><g id="g53"><text x="0" textLength="520" class="foreground">KLEE: object inception_icp_error_line to address 0000000030000310</text></g><g id="g54"><text x="0" textLength="600" class="foreground">KLEE: object inception_icp_error_message_suffix to address 000000003000031e</text></g><g id="g55"><text x="0" textLength="656" class="foreground">KLEE: adding custom object at 2000c000 with size 0000ffff with name MMIO - conf [R</text></g><g id="g56"><text x="0" textLength="368" class="foreground">eadOnly;Symbolic;Randomized;Forwarded] N|N|N|Y</text></g><g id="g57"><text x="0" textLength="656" font-weight="bold" class="color13">KLEE: WARNING ONCE: calling external: printf(805306472) at /home/nasm/Inception2/b</text></g><g id="g58"><text x="0" textLength="168" font-weight="bold" class="color13">uild/test/main.c:18 0</text></g><g id="g59"><text x="0" textLength="184" class="foreground">Recorded information : </text></g><g id="g60"><text x="0" textLength="104" class="foreground">    [*] Time </text></g><g id="g61"><text x="0" textLength="184" class="foreground">total_io_time.tv_nsec  </text></g><g id="g62"><text x="0" textLength="88" class="foreground">    [*] IO </text></g><g id="g63"><text x="0" textLength="296" class="foreground">        - Number of reads    :  65536</text></g><g id="g64"><text x="0" textLength="296" class="foreground">        - Number of writes   :  65536</text></g><g id="g65"><text x="0" textLength="168" class="foreground">KLEE: closing device </text></g><g id="g66"><text x="0" textLength="200" class="foreground"> nasm@nasm-Inspiron-7537 </text><text x="200" textLength="168" class="color0">&#57520; ~/Inception2/build </text><text x="368" textLength="8" class="color4">&#57520;</text><text x="376" textLength="128" class="color0"> &#57504; mine/2.0.x &#9679; </text><text x="504" textLength="8" class="color3">&#57520;</text><text x="512" textLength="16" class="foreground"> e</text><text x="528" textLength="8" class="background"> </text><text x="536" textLength="120" class="foreground">               </text></g><g id="g67"><text x="0" textLength="200" class="foreground"> nasm@nasm-Inspiron-7537 </text><text x="200" textLength="168" class="color0">&#57520; ~/Inception2/build </text><text x="368" textLength="8" class="color4">&#57520;</text><text x="376" textLength="128" class="color0"> &#57504; mine/2.0.x &#9679; </text><text x="504" textLength="8" class="color3">&#57520;</text><text x="512" textLength="24" class="foreground"> ex</text><text x="536" textLength="8" class="background"> </text><text x="544" textLength="112" class="foreground">              </text></g><g id="g68"><text x="0" textLength="200" class="foreground"> nasm@nasm-Inspiron-7537 </text><text x="200" textLength="168" class="color0">&#57520; ~/Inception2/build </text><text x="368" textLength="8" class="color4">&#57520;</text><text x="376" textLength="128" class="color0"> &#57504; mine/2.0.x &#9679; </text><text x="504" textLength="8" class="color3">&#57520;</text><text x="512" textLength="32" class="foreground"> exi</text><text x="544" textLength="8" class="background"> </text><text x="552" textLength="104" class="foreground">             </text></g><g id="g69"><text x="0" textLength="200" class="foreground"> nasm@nasm-Inspiron-7537 </text><text x="200" textLength="168" class="color0">&#57520; ~/Inception2/build </text><text x="368" textLength="8" class="color4">&#57520;</text><text x="376" textLength="128" class="color0"> &#57504; mine/2.0.x &#9679; </text><text x="504" textLength="8" class="color3">&#57520;</text><text x="512" textLength="40" class="foreground"> exit</text><text x="552" textLength="8" class="background"> </text><text x="560" textLength="96" class="foreground">            </text></g><g id="g70"><text x="0" textLength="200" class="foreground"> nasm@nasm-Inspiron-7537 </text><text x="200" textLength="168" class="color0">&#57520; ~/Inception2/build </text><text x="368" textLength="8" class="color4">&#57520;</text><text x="376" textLength="128" class="color0"> &#57504; mine/2.0.x &#9679; </text><text x="504" textLength="8" class="color3">&#57520;</text><text x="512" textLength="144" class="foreground"> exit             </text></g></defs><g id="screen_view"><g><rect x="0" y="0" width="8" height="17" class="foreground"/><use xlink:href="#g1" y="0"/></g><g><rect x="0" y="204" width="200" height="17" class="color0"/><rect x="200" y="204" width="168" height="17" class="color4"/><rect x="368" y="204" width="136" height="17" class="color3"/><rect x="520" y="204" width="8" height="17" class="foreground"/><use xlink:href="#g2" y="204"/></g><g><rect x="0" y="408" width="200" height="17" class="color0"/><rect x="200" y="408" width="168" height="17" class="color4"/><rect x="368" y="408" width="136" height="17" class="color3"/><rect x="520" y="408" width="8" height="17" class="foreground"/><use xlink:href="#g2" y="408"/></g><g><rect x="0" y="612" width="200" height="17" class="color0"/><rect x="200" y="612" width="168" height="17" class="color4"/><rect x="368" y="612" width="136" height="17" class="color3"/><rect x="528" y="612" width="8" height="17" class="foreground"/><use xlink:href="#g3" y="612"/></g><g><rect x="0" y="816" width="200" height="17" class="color0"/><rect x="200" y="816" width="168" height="17" class="color4"/><rect x="368" y="816" width="136" height="17" class="color3"/><rect x="536" y="816" width="8" height="17" class="foreground"/><use xlink:href="#g4" y="816"/></g><g><rect x="0" y="1020" width="200" height="17" class="color0"/><rect x="200" y="1020" width="168" height="17" class="color4"/><rect x="368" y="1020" width="136" height="17" class="color3"/><rect x="544" y="1020" width="8" height="17" class="foreground"/><use xlink:href="#g5" y="1020"/></g><g><rect x="0" y="1224" width="200" height="17" class="color0"/><rect x="200" y="1224" width="168" height="17" class="color4"/><rect x="368" y="1224" width="136" height="17" class="color3"/><rect x="552" y="1224" width="8" height="17" class="foreground"/><use xlink:href="#g6" y="1224"/></g><g><rect x="0" y="1428" width="200" height="17" class="color0"/><rect x="200" y="1428" width="168" height="17" class="color4"/><rect x="368" y="1428" width="136" height="17" class="color3"/><rect x="560" y="1428" width="8" height="17" class="foreground"/><use xlink:href="#g7" y="1428"/></g><g><rect x="0" y="1632" width="200" height="17" class="color0"/><rect x="200" y="1632" width="168" height="17" class="color4"/><rect x="368" y="1632" width="136" height="17" class="color3"/><rect x="568" y="1632" width="8" height="17" class="foreground"/><use xlink:href="#g8" y="1632"/></g><g><rect x="0" y="1836" width="200" height="17" class="color0"/><rect x="200" y="1836" width="168" height="17" class="color4"/><rect x="368" y="1836" width="136" height="17" class="color3"/><use xlink:href="#g9" y="1836"/><use xlink:href="#g10" y="1853"/><use xlink:href="#g11" y="1870"/><rect x="336" y="1887" width="8" height="17" class="foreground"/><use xlink:href="#g12" y="1887"/></g><g><rect x="0" y="2040" width="200" height="17" class="color0"/><rect x="200" y="2040" width="168" height="17" class="color4"/><rect x="368" y="2040" width="136" height="17" class="color3"/><use xlink:href="#g9" y="2040"/><use xlink:href="#g10" y="2057"/><use xlink:href="#g11" y="2074"/><rect x="336" y="2091" width="8" height="17" class="foreground"/><use xlink:href="#g12" y="2091"/></g><g><rect x="0" y="2244" width="200" height="17" class="color0"/><rect x="200" y="2244" width="168" height="17" class="color4"/><rect x="368" y="2244" width="136" height="17" class="color3"/><use xlink:href="#g9" y="2244"/><use xlink:href="#g10" y="2261"/><use xlink:href="#g11" y="2278"/><use xlink:href="#g13" y="2295"/><use xlink:href="#g14" y="2312"/><rect x="0" y="2329" width="8" height="17" class="foreground"/><use xlink:href="#g15" y="2329"/></g><g><rect x="0" y="2448" width="200" height="17" class="color0"/><rect x="200" y="2448" width="168" height="17" class="color4"/><rect x="368" y="2448" width="136" height="17" class="color3"/><use xlink:href="#g9" y="2448"/><use xlink:href="#g10" y="2465"/><use xlink:href="#g11" y="2482"/><use xlink:href="#g13" y="2499"/><use xlink:href="#g14" y="2516"/><use xlink:href="#g16" y="2533"/><use xlink:href="#g17" y="2550"/><rect x="0" y="2567" width="8" height="17" class="foreground"/><use xlink:href="#g15" y="2567"/></g><g><rect x="0" y="2652" width="200" height="17" class="color0"/><rect x="200" y="2652" width="168" height="17" class="color4"/><rect x="368" y="2652" width="136" height="17" class="color3"/><use xlink:href="#g9" y="2652"/><use xlink:href="#g10" y="2669"/><use xlink:href="#g11" y="2686"/><use xlink:href="#g13" y="2703"/><use xlink:href="#g14" y="2720"/><use xlink:href="#g16" y="2737"/><use xlink:href="#g17" y="2754"/><use xlink:href="#g18" y="2771"/><rect x="0" y="2788" width="8" height="17" class="foreground"/><use xlink:href="#g15" y="2788"/></g><g><rect x="0" y="2856" width="200" height="17" class="color0"/><rect x="200" y="2856" width="168" height="17" class="color4"/><rect x="368" y="2856" width="136" height="17" class="color3"/><use xlink:href="#g9" y="2856"/><use xlink:href="#g10" y="2873"/><use xlink:href="#g11" y="2890"/><use xlink:href="#g13" y="2907"/><use xlink:href="#g14" y="2924"/><use xlink:href="#g16" y="2941"/><use xlink:href="#g17" y="2958"/><use xlink:href="#g18" y="2975"/><use xlink:href="#g19" y="2992"/><rect x="0" y="3009" width="8" height="17" class="foreground"/><use xlink:href="#g15" y="3009"/></g><g><use xlink:href="#g20" y="3060"/><use xlink:href="#g21" y="3077"/><use xlink:href="#g22" y="3094"/><use xlink:href="#g23" y="3111"/><use xlink:href="#g24" y="3128"/><use xlink:href="#g25" y="3145"/><use xlink:href="#g26" y="3162"/><use xlink:href="#g27" y="3179"/><use xlink:href="#g28" y="3196"/><rect x="168" y="3213" width="8" height="17" class="foreground"/><use xlink:href="#g29" y="3213"/></g><g><use xlink:href="#g30" y="3264"/><use xlink:href="#g31" y="3281"/><use xlink:href="#g32" y="3298"/><use xlink:href="#g33" y="3315"/><use xlink:href="#g34" y="3332"/><use xlink:href="#g35" y="3349"/><use xlink:href="#g36" y="3366"/><use xlink:href="#g37" y="3383"/><use xlink:href="#g38" y="3400"/><rect x="56" y="3417" width="8" height="17" class="foreground"/><use xlink:href="#g39" y="3417"/></g><g><use xlink:href="#g40" y="3468"/><use xlink:href="#g41" y="3485"/><use xlink:href="#g42" y="3502"/><use xlink:href="#g43" y="3519"/><use xlink:href="#g44" y="3536"/><use xlink:href="#g45" y="3553"/><use xlink:href="#g46" y="3570"/><use xlink:href="#g47" y="3587"/><use xlink:href="#g48" y="3604"/><rect x="48" y="3621" width="8" height="17" class="foreground"/><use xlink:href="#g49" y="3621"/></g><g><use xlink:href="#g47" y="3672"/><use xlink:href="#g48" y="3689"/><use xlink:href="#g50" y="3706"/><use xlink:href="#g51" y="3723"/><use xlink:href="#g52" y="3740"/><use xlink:href="#g53" y="3757"/><use xlink:href="#g54" y="3774"/><use xlink:href="#g55" y="3791"/><use xlink:href="#g56" y="3808"/><rect x="0" y="3825" width="8" height="17" class="foreground"/><use xlink:href="#g15" y="3825"/></g><g><use xlink:href="#g50" y="3876"/><use xlink:href="#g51" y="3893"/><use xlink:href="#g52" y="3910"/><use xlink:href="#g53" y="3927"/><use xlink:href="#g54" y="3944"/><use xlink:href="#g55" y="3961"/><use xlink:href="#g56" y="3978"/><use xlink:href="#g57" y="3995"/><use xlink:href="#g58" y="4012"/><rect x="0" y="4029" width="8" height="17" class="foreground"/><use xlink:href="#g15" y="4029"/></g><g><use xlink:href="#g51" y="4080"/><use xlink:href="#g52" y="4097"/><use xlink:href="#g53" y="4114"/><use xlink:href="#g54" y="4131"/><use xlink:href="#g55" y="4148"/><use xlink:href="#g56" y="4165"/><use xlink:href="#g57" y="4182"/><use xlink:href="#g58" y="4199"/><use xlink:href="#g59" y="4216"/><rect x="0" y="4233" width="8" height="17" class="foreground"/><use xlink:href="#g15" y="4233"/></g><g><use xlink:href="#g52" y="4284"/><use xlink:href="#g53" y="4301"/><use xlink:href="#g54" y="4318"/><use xlink:href="#g55" y="4335"/><use xlink:href="#g56" y="4352"/><use xlink:href="#g57" y="4369"/><use xlink:href="#g58" y="4386"/><use xlink:href="#g59" y="4403"/><use xlink:href="#g60" y="4420"/><rect x="0" y="4437" width="8" height="17" class="foreground"/><use xlink:href="#g15" y="4437"/></g><g><use xlink:href="#g53" y="4488"/><use xlink:href="#g54" y="4505"/><use xlink:href="#g55" y="4522"/><use xlink:href="#g56" y="4539"/><use xlink:href="#g57" y="4556"/><use xlink:href="#g58" y="4573"/><use xlink:href="#g59" y="4590"/><use xlink:href="#g60" y="4607"/><use xlink:href="#g61" y="4624"/><rect x="0" y="4641" width="8" height="17" class="foreground"/><use xlink:href="#g15" y="4641"/></g><g><use xlink:href="#g54" y="4692"/><use xlink:href="#g55" y="4709"/><use xlink:href="#g56" y="4726"/><use xlink:href="#g57" y="4743"/><use xlink:href="#g58" y="4760"/><use xlink:href="#g59" y="4777"/><use xlink:href="#g60" y="4794"/><use xlink:href="#g61" y="4811"/><use xlink:href="#g62" y="4828"/><rect x="0" y="4845" width="8" height="17" class="foreground"/><use xlink:href="#g15" y="4845"/></g><g><use xlink:href="#g55" y="4896"/><use xlink:href="#g56" y="4913"/><use xlink:href="#g57" y="4930"/><use xlink:href="#g58" y="4947"/><use xlink:href="#g59" y="4964"/><use xlink:href="#g60" y="4981"/><use xlink:href="#g61" y="4998"/><use xlink:href="#g62" y="5015"/><use xlink:href="#g63" y="5032"/><rect x="0" y="5049" width="8" height="17" class="foreground"/><use xlink:href="#g15" y="5049"/></g><g><use xlink:href="#g56" y="5100"/><use xlink:href="#g57" y="5117"/><use xlink:href="#g58" y="5134"/><use xlink:href="#g59" y="5151"/><use xlink:href="#g60" y="5168"/><use xlink:href="#g61" y="5185"/><use xlink:href="#g62" y="5202"/><use xlink:href="#g63" y="5219"/><use xlink:href="#g64" y="5236"/><rect x="0" y="5253" width="8" height="17" class="foreground"/><use xlink:href="#g15" y="5253"/></g><g><use xlink:href="#g59" y="5304"/><use xlink:href="#g60" y="5321"/><use xlink:href="#g61" y="5338"/><use xlink:href="#g62" y="5355"/><use xlink:href="#g63" y="5372"/><use xlink:href="#g64" y="5389"/><use xlink:href="#g17" y="5406"/><use xlink:href="#g65" y="5423"/><rect x="0" y="5457" width="8" height="17" class="foreground"/><use xlink:href="#g15" y="5457"/></g><g><use xlink:href="#g59" y="5508"/><use xlink:href="#g60" y="5525"/><use xlink:href="#g61" y="5542"/><use xlink:href="#g62" y="5559"/><use xlink:href="#g63" y="5576"/><use xlink:href="#g64" y="5593"/><use xlink:href="#g17" y="5610"/><use xlink:href="#g65" y="5627"/><rect x="0" y="5661" width="8" height="17" class="foreground"/><use xlink:href="#g1" y="5661"/></g><g><use xlink:href="#g59" y="5712"/><use xlink:href="#g60" y="5729"/><use xlink:href="#g61" y="5746"/><use xlink:href="#g62" y="5763"/><use xlink:href="#g63" y="5780"/><use xlink:href="#g64" y="5797"/><use xlink:href="#g17" y="5814"/><use xlink:href="#g65" y="5831"/><rect x="0" y="5865" width="200" height="17" class="color0"/><rect x="200" y="5865" width="168" height="17" class="color4"/><rect x="368" y="5865" width="136" height="17" class="color3"/><rect x="520" y="5865" width="8" height="17" class="foreground"/><use xlink:href="#g2" y="5865"/></g><g><use xlink:href="#g59" y="5916"/><use xlink:href="#g60" y="5933"/><use xlink:href="#g61" y="5950"/><use xlink:href="#g62" y="5967"/><use xlink:href="#g63" y="5984"/><use xlink:href="#g64" y="6001"/><use xlink:href="#g17" y="6018"/><use xlink:href="#g65" y="6035"/><rect x="0" y="6069" width="200" height="17" class="color0"/><rect x="200" y="6069" width="168" height="17" class="color4"/><rect x="368" y="6069" width="136" height="17" class="color3"/><rect x="520" y="6069" width="8" height="17" class="foreground"/><use xlink:href="#g2" y="6069"/></g><g><use xlink:href="#g59" y="6120"/><use xlink:href="#g60" y="6137"/><use xlink:href="#g61" y="6154"/><use xlink:href="#g62" y="6171"/><use xlink:href="#g63" y="6188"/><use xlink:href="#g64" y="6205"/><use xlink:href="#g17" y="6222"/><use xlink:href="#g65" y="6239"/><rect x="0" y="6273" width="200" height="17" class="color0"/><rect x="200" y="6273" width="168" height="17" class="color4"/><rect x="368" y="6273" width="136" height="17" class="color3"/><rect x="528" y="6273" width="8" height="17" class="foreground"/><use xlink:href="#g66" y="6273"/></g><g><use xlink:href="#g59" y="6324"/><use xlink:href="#g60" y="6341"/><use xlink:href="#g61" y="6358"/><use xlink:href="#g62" y="6375"/><use xlink:href="#g63" y="6392"/><use xlink:href="#g64" y="6409"/><use xlink:href="#g17" y="6426"/><use xlink:href="#g65" y="6443"/><rect x="0" y="6477" width="200" height="17" class="color0"/><rect x="200" y="6477" width="168" height="17" class="color4"/><rect x="368" y="6477" width="136" height="17" class="color3"/><rect x="536" y="6477" width="8" height="17" class="foreground"/><use xlink:href="#g67" y="6477"/></g><g><use xlink:href="#g59" y="6528"/><use xlink:href="#g60" y="6545"/><use xlink:href="#g61" y="6562"/><use xlink:href="#g62" y="6579"/><use xlink:href="#g63" y="6596"/><use xlink:href="#g64" y="6613"/><use xlink:href="#g17" y="6630"/><use xlink:href="#g65" y="6647"/><rect x="0" y="6681" width="200" height="17" class="color0"/><rect x="200" y="6681" width="168" height="17" class="color4"/><rect x="368" y="6681" width="136" height="17" class="color3"/><rect x="544" y="6681" width="8" height="17" class="foreground"/><use xlink:href="#g68" y="6681"/></g><g><use xlink:href="#g59" y="6732"/><use xlink:href="#g60" y="6749"/><use xlink:href="#g61" y="6766"/><use xlink:href="#g62" y="6783"/><use xlink:href="#g63" y="6800"/><use xlink:href="#g64" y="6817"/><use xlink:href="#g17" y="6834"/><use xlink:href="#g65" y="6851"/><rect x="0" y="6885" width="200" height="17" class="color0"/><rect x="200" y="6885" width="168" height="17" class="color4"/><rect x="368" y="6885" width="136" height="17" class="color3"/><rect x="552" y="6885" width="8" height="17" class="foreground"/><use xlink:href="#g69" y="6885"/></g><g><use xlink:href="#g59" y="6936"/><use xlink:href="#g60" y="6953"/><use xlink:href="#g61" y="6970"/><use xlink:href="#g62" y="6987"/><use xlink:href="#g63" y="7004"/><use xlink:href="#g64" y="7021"/><use xlink:href="#g17" y="7038"/><use xlink:href="#g65" y="7055"/><rect x="0" y="7089" width="200" height="17" class="color0"/><rect x="200" y="7089" width="168" height="17" class="color4"/><rect x="368" y="7089" width="136" height="17" class="color3"/><rect x="552" y="7089" width="8" height="17" class="foreground"/><use xlink:href="#g69" y="7089"/></g><g><use xlink:href="#g60" y="7140"/><use xlink:href="#g61" y="7157"/><use xlink:href="#g62" y="7174"/><use xlink:href="#g63" y="7191"/><use xlink:href="#g64" y="7208"/><use xlink:href="#g17" y="7225"/><use xlink:href="#g65" y="7242"/><rect x="0" y="7276" width="200" height="17" class="color0"/><rect x="200" y="7276" width="168" height="17" class="color4"/><rect x="368" y="7276" width="136" height="17" class="color3"/><use xlink:href="#g70" y="7276"/><rect x="0" y="7293" width="8" height="17" class="foreground"/><use xlink:href="#g15" y="7293"/></g></g></svg>
</svg>